<svg width="38" height="38" viewBox="0 0 38 38" fill="none" xmlns="http://www.w3.org/2000/svg">
<path fill-rule="evenodd" clip-rule="evenodd" d="M3.03815 34.91C1.40915 33.2524 1.43239 30.5869 3.08991 28.9578C4.74773 27.3287 7.41336 27.3519 9.04238 29.0096C10.6714 30.6672 10.6481 33.3328 8.99043 34.9619C7.33269 36.5909 4.66707 36.5677 3.03815 34.91Z" fill="#5146E4"/>
<path fill-rule="evenodd" clip-rule="evenodd" d="M34.9101 34.9619C33.2525 36.5909 30.587 36.5677 28.9579 34.9101C27.3289 33.2523 27.352 30.5867 29.0098 28.9577C30.6673 27.3287 33.333 27.3519 34.962 29.0096C36.591 30.6674 36.5679 33.333 34.9101 34.9619Z" fill="#5146E4"/>
<path fill-rule="evenodd" clip-rule="evenodd" d="M34.962 3.08995C36.591 4.74754 36.5678 7.4131 34.9103 9.0422C33.2525 10.6712 30.5868 10.6481 28.9578 8.99033C27.3288 7.33274 27.352 4.66707 29.0097 3.03808C30.6675 1.40904 33.3331 1.43221 34.962 3.08995Z" fill="#5146E4"/>
<path fill-rule="evenodd" clip-rule="evenodd" d="M36.1686 19.0369C36.1484 21.3609 34.2471 23.2293 31.9231 23.2092C30.9518 23.2007 30.0599 22.8635 29.3524 22.3043C28.3532 21.5147 27.0324 21.3591 25.7556 21.3896C22.9701 21.4565 21.3136 23.153 21.3222 25.9846C21.3256 27.1163 21.4514 28.3995 22.1777 29.2774C22.7884 30.0151 23.1522 30.964 23.1433 31.9963C23.123 34.3204 21.2218 36.1889 18.8978 36.1685C16.5738 36.1483 14.7054 34.247 14.7255 31.923C14.7343 30.9121 15.0992 29.9874 15.6997 29.2667C16.4083 28.4171 16.5316 27.1771 16.5528 26.0788C16.6109 23.0679 14.8236 21.3053 11.7833 21.4016C10.7058 21.4358 9.55328 21.5576 8.71895 22.2465C7.98184 22.8554 7.03449 23.2181 6.00383 23.2092C3.6798 23.1889 1.81123 21.2877 1.83162 18.9637C1.85065 16.772 3.54272 14.9857 5.68461 14.8063C5.90492 14.7888 6.12656 14.7866 6.34699 14.8022C7.20921 14.8645 7.99877 15.1862 8.63849 15.689C9.56505 16.4172 10.6864 16.573 11.8748 16.5972C14.7196 16.6556 16.4377 15.0603 16.5414 12.3267C16.5848 11.1819 16.4743 9.64782 15.7219 8.75916C15.0926 8.01644 14.7164 7.05309 14.7255 6.00367C14.7457 3.67957 16.6471 1.81107 18.971 1.83146C21.295 1.85163 23.1634 3.75293 23.1433 6.07691C23.1345 7.08249 22.7735 8.00283 22.1787 8.72156C21.4088 9.65285 21.2885 11.1503 21.3407 12.343C21.4575 15.007 23.1154 16.5812 25.8396 16.6108C27.1111 16.6245 28.3751 16.4594 29.3711 15.6818C30.0945 15.1164 31.0073 14.7828 31.9964 14.7914C34.3205 14.8116 36.189 16.7129 36.1686 19.0369Z" fill="#5146E4"/>
<path fill-rule="evenodd" clip-rule="evenodd" d="M3.09006 3.03805C4.74765 1.40901 7.4132 1.43229 9.0423 3.0898C10.6713 4.74762 10.6482 7.41325 8.99043 9.04228C7.33285 10.6713 4.66718 10.648 3.03819 8.99029C1.40915 7.33258 1.43232 4.66696 3.09006 3.03805Z" fill="#5146E4"/>
</svg>
